<svg width="18" height="18" viewBox="0 0 18 18" fill="none" xmlns="http://www.w3.org/2000/svg">
<path d="M16.0179 7.03449H10.4732V1.37168C10.4732 0.676809 9.92144 0.113281 9.24107 0.113281H8.00893C7.32855 0.113281 6.77679 0.676809 6.77679 1.37168V7.03449H1.23214C0.551769 7.03449 0 7.59802 0 8.29289V9.55129C0 10.2462 0.551769 10.8097 1.23214 10.8097H6.77679V16.4725C6.77679 17.1674 7.32855 17.7309 8.00893 17.7309H9.24107C9.92144 17.7309 10.4732 17.1674 10.4732 16.4725V10.8097H16.0179C16.6982 10.8097 17.25 10.2462 17.25 9.55129V8.29289C17.25 7.59802 16.6982 7.03449 16.0179 7.03449Z" fill="white"/>
</svg>
