<svg width="24" height="24" viewBox="0 0 24 24" xmlns="http://www.w3.org/2000/svg">
<path d="M9.6 15.75H9.59925C9.59925 14.9916 9.6495 15.3408 6.40987 7.24172C5.748 5.5875 3.85275 5.58422 3.18975 7.24172C-0.0772502 15.4102 0.00075 15.0155 0.00075 15.75H0C0 17.8209 2.14913 19.5 4.8 19.5C7.45088 19.5 9.6 17.8209 9.6 15.75ZM4.8 8.25L7.5 15H2.1L4.8 8.25ZM23.9993 15.75C23.9993 14.9916 24.0495 15.3408 20.8099 7.24172C20.148 5.5875 18.2528 5.58422 17.5898 7.24172C14.3228 15.4102 14.4008 15.0155 14.4008 15.75H14.4C14.4 17.8209 16.5491 19.5 19.2 19.5C21.8509 19.5 24 17.8209 24 15.75H23.9993ZM16.5 15L19.2 8.25L21.9 15H16.5ZM19.8 21H13.2V7.18359C14.0816 6.70125 14.7435 5.70797 14.9396 4.5H19.8C20.1315 4.5 20.4 4.16437 20.4 3.75V2.25C20.4 1.83562 20.1315 1.5 19.8 1.5H14.3865C13.839 0.594375 12.9784 0 12 0C11.0216 0 10.161 0.594375 9.6135 1.5H4.2C3.8685 1.5 3.6 1.83562 3.6 2.25V3.75C3.6 4.16437 3.8685 4.5 4.2 4.5H9.06038C9.2565 5.7075 9.918 6.70125 10.8 7.18359V21H4.2C3.8685 21 3.6 21.3356 3.6 21.75V23.25C3.6 23.6644 3.8685 24 4.2 24H19.8C20.1315 24 20.4 23.6644 20.4 23.25V21.75C20.4 21.3356 20.1315 21 19.8 21Z" fill="#fff"/>
</svg>
