<svg width="24" height="8" viewBox="0 0 24 8" fill="none" xmlns="http://www.w3.org/2000/svg">
<path d="M15.4839 4C15.4839 6.21111 13.9258 8 12 8C10.0742 8 8.51613 6.21111 8.51613 4C8.51613 1.78889 10.0742 0 12 0C13.9258 0 15.4839 1.78889 15.4839 4ZM20.5161 0C18.5903 0 17.0323 1.78889 17.0323 4C17.0323 6.21111 18.5903 8 20.5161 8C22.4419 8 24 6.21111 24 4C24 1.78889 22.4419 0 20.5161 0ZM3.48387 0C1.55806 0 0 1.78889 0 4C0 6.21111 1.55806 8 3.48387 8C5.40968 8 6.96774 6.21111 6.96774 4C6.96774 1.78889 5.40968 0 3.48387 0Z" fill="#D9D9D9"/>
</svg>
