<svg width="16" height="14" viewBox="0 0 16 14" fill="none" xmlns="http://www.w3.org/2000/svg">
<path d="M7.81763 6.16602L13.1301 0.853516C13.4973 0.486328 14.0911 0.486328 14.4543 0.853516L15.3372 1.73633C15.7043 2.10352 15.7043 2.69727 15.3372 3.06055L11.5754 6.83008L15.3411 10.5957C15.7083 10.9629 15.7083 11.5566 15.3411 11.9199L14.4583 12.8066C14.0911 13.1738 13.4973 13.1738 13.134 12.8066L7.82154 7.49414C7.45044 7.12695 7.45044 6.5332 7.81763 6.16602ZM0.317629 7.49414L5.63013 12.8066C5.99732 13.1738 6.59107 13.1738 6.95435 12.8066L7.83716 11.9238C8.20435 11.5566 8.20435 10.9629 7.83716 10.5996L4.07544 6.83008L7.84107 3.06445C8.20825 2.69727 8.20825 2.10352 7.84107 1.74023L6.95825 0.853516C6.59107 0.486328 5.99732 0.486328 5.63404 0.853516L0.321535 6.16602C-0.0495586 6.5332 -0.0495586 7.12695 0.317629 7.49414Z" fill="black"/>
</svg>
