<svg width="16" height="14" viewBox="0 0 16 14" fill="none" xmlns="http://www.w3.org/2000/svg">
<path d="M8.01172 7.66602L2.69922 12.9785C2.33203 13.3457 1.73828 13.3457 1.375 12.9785L0.492187 12.0957C0.125 11.7285 0.125 11.1348 0.492187 10.7715L4.25781 7.00586L0.492187 3.24023C0.125 2.87305 0.125 2.2793 0.492187 1.91602L1.37109 1.02539C1.73828 0.658203 2.33203 0.658203 2.69531 1.02539L8.00781 6.33789C8.37891 6.70508 8.37891 7.29883 8.01172 7.66602ZM15.5117 6.33789L10.1992 1.02539C9.83203 0.658203 9.23828 0.658203 8.875 1.02539L7.99219 1.9082C7.625 2.27539 7.625 2.86914 7.99219 3.23242L11.7578 6.99805L7.99219 10.7637C7.625 11.1309 7.625 11.7246 7.99219 12.0879L8.875 12.9707C9.24219 13.3379 9.83594 13.3379 10.1992 12.9707L15.5117 7.6582C15.8789 7.29883 15.8789 6.70508 15.5117 6.33789Z" fill="black"/>
</svg>
