<svg width="25" height="22" viewBox="0 0 25 22" fill="none" xmlns="http://www.w3.org/2000/svg">
<path d="M12.4239 0C5.88925 0 0.594727 4.92339 0.594727 11C0.594727 17.0766 5.88925 22 12.4239 22C18.9586 22 24.2531 17.0766 24.2531 11C24.2531 4.92339 18.9586 0 12.4239 0Z" fill="#999999"/>
<path d="M19.3424 9.03546H13.8766V3.37266C13.8766 2.67779 13.3327 2.11426 12.662 2.11426H11.4474C10.7767 2.11426 10.2328 2.67779 10.2328 3.37266V9.03546H4.7671C4.09641 9.03546 3.55249 9.59899 3.55249 10.2939V11.5523C3.55249 12.2471 4.09641 12.8107 4.7671 12.8107H10.2328V18.4735C10.2328 19.1683 10.7767 19.7319 11.4474 19.7319H12.662C13.3327 19.7319 13.8766 19.1683 13.8766 18.4735V12.8107H19.3424C20.0131 12.8107 20.557 12.2471 20.557 11.5523V10.2939C20.557 9.59899 20.0131 9.03546 19.3424 9.03546Z" fill="white"/>
</svg>
