<svg width="18" height="18" viewBox="0 0 18 18" fill="none" xmlns="http://www.w3.org/2000/svg">
<path d="M16.0179 7.03546H10.4732V1.37266C10.4732 0.677786 9.92144 0.114258 9.24107 0.114258H8.00893C7.32855 0.114258 6.77679 0.677786 6.77679 1.37266V7.03546H1.23214C0.551769 7.03546 0 7.59899 0 8.29387V9.55227C0 10.2471 0.551769 10.8107 1.23214 10.8107H6.77679V16.4735C6.77679 17.1683 7.32855 17.7319 8.00893 17.7319H9.24107C9.92144 17.7319 10.4732 17.1683 10.4732 16.4735V10.8107H16.0179C16.6982 10.8107 17.25 10.2471 17.25 9.55227V8.29387C17.25 7.59899 16.6982 7.03546 16.0179 7.03546Z" fill="white"/>
</svg>
