<svg width="26" height="26" viewBox="0 0 26 26" fill="none" xmlns="http://www.w3.org/2000/svg">
<path d="M10.5 16.9062H10.4992C10.4992 16.1162 10.5516 16.48 7.17695 8.04346C6.4875 6.32031 4.51328 6.31689 3.82266 8.04346C0.419531 16.5522 0.500781 16.1411 0.500781 16.9062H0.5C0.5 19.0635 2.73867 20.8125 5.5 20.8125C8.26133 20.8125 10.5 19.0635 10.5 16.9062ZM5.5 9.09375L8.3125 16.125H2.6875L5.5 9.09375ZM25.4992 16.9062C25.4992 16.1162 25.5516 16.48 22.177 8.04346C21.4875 6.32031 19.5133 6.31689 18.8227 8.04346C15.4195 16.5522 15.5008 16.1411 15.5008 16.9062H15.5C15.5 19.0635 17.7387 20.8125 20.5 20.8125C23.2613 20.8125 25.5 19.0635 25.5 16.9062H25.4992ZM17.6875 16.125L20.5 9.09375L23.3125 16.125H17.6875ZM21.125 22.375H14.25V7.98291C15.1684 7.48047 15.8578 6.4458 16.0621 5.1875H21.125C21.4703 5.1875 21.75 4.83789 21.75 4.40625V2.84375C21.75 2.41211 21.4703 2.0625 21.125 2.0625H15.4859C14.9156 1.11914 14.0191 0.5 13 0.5C11.9809 0.5 11.0844 1.11914 10.5141 2.0625H4.875C4.52969 2.0625 4.25 2.41211 4.25 2.84375V4.40625C4.25 4.83789 4.52969 5.1875 4.875 5.1875H9.93789C10.1422 6.44531 10.8313 7.48047 11.75 7.98291V22.375H4.875C4.52969 22.375 4.25 22.7246 4.25 23.1562V24.7188C4.25 25.1504 4.52969 25.5 4.875 25.5H21.125C21.4703 25.5 21.75 25.1504 21.75 24.7188V23.1562C21.75 22.7246 21.4703 22.375 21.125 22.375Z" fill="black"/>
</svg>
