<svg width="26" height="26" viewBox="0 0 26 26" fill="none" xmlns="http://www.w3.org/2000/svg">
<path d="M1.39286 5.09184H24.6071C25.1003 5.09184 25.5 4.63501 25.5 4.07143V1.52041C25.5 0.956824 25.1003 0.5 24.6071 0.5H1.39286C0.899721 0.5 0.5 0.956824 0.5 1.52041V4.07143C0.5 4.63501 0.899721 5.09184 1.39286 5.09184ZM1.39286 15.2959H24.6071C25.1003 15.2959 25.5 14.8391 25.5 14.2755V11.7245C25.5 11.1609 25.1003 10.7041 24.6071 10.7041H1.39286C0.899721 10.7041 0.5 11.1609 0.5 11.7245V14.2755C0.5 14.8391 0.899721 15.2959 1.39286 15.2959ZM1.39286 25.5H24.6071C25.1003 25.5 25.5 25.0432 25.5 24.4796V21.9286C25.5 21.365 25.1003 20.9082 24.6071 20.9082H1.39286C0.899721 20.9082 0.5 21.365 0.5 21.9286V24.4796C0.5 25.0432 0.899721 25.5 1.39286 25.5Z" fill="black"/>
</svg>
