<svg width="16" height="26" viewBox="0 0 16 26" fill="none" xmlns="http://www.w3.org/2000/svg">
<path d="M11.3963 11.8965L5.77007 10.3535C5.11889 10.1777 4.66566 9.60645 4.66566 8.97168C4.66566 8.17578 5.35331 7.53125 6.20245 7.53125H9.65632C10.2919 7.53125 10.917 7.71191 11.438 8.04395C11.7557 8.24414 12.1829 8.19531 12.4538 7.94629L14.2667 6.28613C14.6366 5.94922 14.5845 5.3877 14.1729 5.08984C12.8966 4.15234 11.3025 3.62988 9.66674 3.625V1.28125C9.66674 0.851562 9.29166 0.5 8.83323 0.5H7.1662C6.70777 0.5 6.33269 0.851562 6.33269 1.28125V3.625H6.20245C2.88403 3.625 0.216792 6.2959 0.524149 9.46484C0.742946 11.7158 2.57667 13.5469 4.88967 14.1816L10.2294 15.6465C10.8805 15.8271 11.3338 16.3936 11.3338 17.0283C11.3338 17.8242 10.6461 18.4688 9.79697 18.4688H6.34311C5.70755 18.4688 5.08242 18.2881 4.56147 17.9561C4.2437 17.7559 3.81652 17.8047 3.54563 18.0537L1.73274 19.7139C1.36287 20.0508 1.41497 20.6123 1.82651 20.9102C3.10283 21.8477 4.69692 22.3701 6.33269 22.375V24.7188C6.33269 25.1484 6.70777 25.5 7.1662 25.5H8.83323C9.29166 25.5 9.66674 25.1484 9.66674 24.7188V22.3652C12.0943 22.3213 14.3709 20.9688 15.1731 18.8154C16.2932 15.8076 14.4125 12.7217 11.3963 11.8965Z" fill="black"/>
</svg>
