<svg width="26" height="26" viewBox="0 0 26 26" fill="none" xmlns="http://www.w3.org/2000/svg">
<path d="M8.3125 14.5625H5.57812C5.3623 14.5625 5.1875 14.3877 5.1875 14.1719V13.3906C5.1875 13.1748 5.3623 13 5.57812 13H8.3125V9.875H5.57812C5.3623 9.875 5.1875 9.7002 5.1875 9.48438V8.70312C5.1875 8.4873 5.3623 8.3125 5.57812 8.3125H8.3125V5.1875H5.57812C5.3623 5.1875 5.1875 5.0127 5.1875 4.79688V4.01562C5.1875 3.7998 5.3623 3.625 5.57812 3.625H8.3125V2.0625C8.3125 1.19971 7.61279 0.5 6.75 0.5H2.0625C1.19971 0.5 0.5 1.19971 0.5 2.0625V23.9375C0.5 24.0728 0.544434 24.1934 0.57666 24.3184L8.3125 16.583V14.5625ZM23.9375 17.6875H22.375V20.4219C22.375 20.6377 22.2002 20.8125 21.9844 20.8125H21.2031C20.9873 20.8125 20.8125 20.6377 20.8125 20.4219V17.6875H17.6875V20.4219C17.6875 20.6377 17.5127 20.8125 17.2969 20.8125H16.5156C16.2998 20.8125 16.125 20.6377 16.125 20.4219V17.6875H13V20.4219C13 20.6377 12.8252 20.8125 12.6094 20.8125H11.8281C11.6123 20.8125 11.4375 20.6377 11.4375 20.4219V17.6875H9.41748L1.68164 25.4233C1.80664 25.4556 1.92773 25.5 2.0625 25.5H23.9375C24.8003 25.5 25.5 24.8003 25.5 23.9375V19.25C25.5 18.3872 24.8003 17.6875 23.9375 17.6875Z" fill="black"/>
</svg>
