<svg width="200" height="35" viewBox="0 0 200 35" fill="none" xmlns="http://www.w3.org/2000/svg">
<mask id="path-1-inside-1_3501_10072" fill="white">
<path d="M0 0H200V35H0V0Z"/>
</mask>
<path d="M0 0H200V35H0V0Z" fill="white"/>
<path d="M200 34H0V36H200V34Z" fill="#CBCBCB" mask="url(#path-1-inside-1_3501_10072)"/>
<path d="M85.9972 10.2467L89.3572 13.7709C89.4988 13.9193 89.4988 14.1616 89.3572 14.31L81.2216 22.8429L77.7648 23.2454C77.3029 23.3001 76.9117 22.8898 76.9639 22.4054L77.3476 18.7796L85.4832 10.2467C85.6247 10.0983 85.8557 10.0983 85.9972 10.2467ZM92.0319 9.35202L90.214 7.4454C89.6478 6.85153 88.7277 6.85153 88.1578 7.4454L86.8391 8.82848C86.6975 8.97695 86.6975 9.21918 86.8391 9.36765L90.1991 12.8918C90.3407 13.0402 90.5716 13.0402 90.7132 12.8918L92.0319 11.5087C92.5981 10.9109 92.5981 9.94589 92.0319 9.35202ZM85.3043 20.5222V24.4995H73.3841V11.9971H81.9443C82.0635 11.9971 82.1753 11.9463 82.2609 11.8603L83.751 10.2975C84.0341 10.0006 83.8329 9.49658 83.4344 9.49658H72.788C71.8009 9.49658 71 10.3366 71 11.3719V25.1246C71 26.16 71.8009 27 72.788 27H85.9004C86.8875 27 87.6884 26.16 87.6884 25.1246V18.9594C87.6884 18.5413 87.2079 18.3342 86.9248 18.6273L85.4347 20.1901C85.3528 20.2799 85.3043 20.3971 85.3043 20.5222Z" fill="#999999"/>
<path d="M127.705 8.31251H122.231L121.803 7.54551C121.712 7.38154 121.572 7.24361 121.399 7.14724C121.225 7.05086 121.026 6.99988 120.822 7.00001H115.608C115.405 6.9993 115.206 7.0501 115.033 7.14658C114.86 7.24306 114.721 7.38132 114.632 7.54551L114.203 8.31251H108.73C108.536 8.31251 108.351 8.38165 108.214 8.50472C108.077 8.62779 108 8.79471 108 8.96876V10.2813C108 10.4553 108.077 10.6222 108.214 10.7453C108.351 10.8684 108.536 10.9375 108.73 10.9375H127.705C127.899 10.9375 128.084 10.8684 128.221 10.7453C128.358 10.6222 128.435 10.4553 128.435 10.2813V8.96876C128.435 8.79471 128.358 8.62779 128.221 8.50472C128.084 8.38165 127.899 8.31251 127.705 8.31251ZM110.427 26.1543C110.461 26.6541 110.707 27.1232 111.113 27.4661C111.519 27.809 112.055 27.9999 112.612 28H123.823C124.38 27.9999 124.916 27.809 125.322 27.4661C125.728 27.1232 125.973 26.6541 126.008 26.1543L126.975 12.25H109.46L110.427 26.1543Z" fill="#999999"/>
</svg>
