<svg width="26" height="26" viewBox="0 0 26 26" fill="none" xmlns="http://www.w3.org/2000/svg">
<path d="M12.9808 11.6723L21.5088 1.05061C22.0982 0.316464 23.0513 0.316464 23.6345 1.05061L25.0517 2.81568C25.6411 3.54983 25.6411 4.73696 25.0517 5.46329L19.0131 13L25.0579 20.5289C25.6474 21.263 25.6474 22.4502 25.0579 23.1765L23.6408 24.9494C23.0513 25.6835 22.0982 25.6835 21.5151 24.9494L12.9871 14.3277C12.3914 13.5936 12.3914 12.4064 12.9808 11.6723ZM0.941295 14.3277L9.46928 24.9494C10.0587 25.6835 11.0118 25.6835 11.595 24.9494L13.0122 23.1843C13.6016 22.4502 13.6016 21.263 13.0122 20.5367L6.97359 13L13.0184 5.4711C13.6079 4.73696 13.6079 3.54983 13.0184 2.82349L11.6013 1.05061C11.0118 0.316464 10.0587 0.316464 9.47555 1.05061L0.947565 11.6723C0.351861 12.4064 0.351861 13.5936 0.941295 14.3277Z" fill="black"/>
</svg>
