<svg width="35" height="15" viewBox="0 0 35 15" fill="none" xmlns="http://www.w3.org/2000/svg">
<path d="M7.54696 4.67401C7.49583 4.15838 7.27637 3.75781 6.88858 3.4723C6.5008 3.18679 5.97452 3.04403 5.30975 3.04403C4.85804 3.04403 4.47665 3.10795 4.16557 3.2358C3.85449 3.35937 3.61586 3.53196 3.44966 3.75355C3.28773 3.97514 3.20677 4.22656 3.20677 4.50781C3.19824 4.74219 3.24725 4.94673 3.35378 5.12145C3.46458 5.29616 3.61586 5.44744 3.80762 5.57528C3.99938 5.69886 4.22097 5.80753 4.47239 5.90128C4.72381 5.99077 4.99228 6.06747 5.27779 6.13139L6.45392 6.41264C7.02495 6.54048 7.54909 6.71094 8.02637 6.92401C8.50364 7.13707 8.91699 7.39915 9.26642 7.71023C9.61586 8.02131 9.88645 8.38778 10.0782 8.80966C10.2742 9.23153 10.3744 9.7152 10.3786 10.2607C10.3744 11.0618 10.1698 11.7564 9.765 12.3445C9.36444 12.9283 8.78489 13.3821 8.02637 13.706C7.27211 14.0256 6.36231 14.1854 5.29696 14.1854C4.24015 14.1854 3.31969 14.0234 2.5356 13.6996C1.75577 13.3757 1.1464 12.8963 0.707475 12.2614C0.272816 11.6222 0.0448331 10.8317 0.0235263 9.88991H2.70179C2.73162 10.3288 2.85733 10.6953 3.07892 10.9893C3.30478 11.2791 3.6052 11.4986 3.9802 11.6477C4.35946 11.7926 4.78773 11.8651 5.265 11.8651C5.73375 11.8651 6.14071 11.7969 6.48588 11.6605C6.83532 11.5241 7.10591 11.3345 7.29767 11.0916C7.48944 10.8487 7.58532 10.5696 7.58532 10.2543C7.58532 9.96023 7.49796 9.71307 7.32324 9.51278C7.15279 9.3125 6.90137 9.14205 6.56898 9.00142C6.24086 8.8608 5.83816 8.73295 5.36088 8.6179L3.93546 8.25994C2.83176 7.99148 1.96032 7.57173 1.32111 7.00071C0.681907 6.42969 0.364435 5.66051 0.368697 4.69318C0.364435 3.90057 0.575373 3.2081 1.00151 2.61577C1.43191 2.02344 2.02211 1.56108 2.77211 1.22869C3.52211 0.896306 4.37438 0.730113 5.32892 0.730113C6.30052 0.730113 7.14853 0.896306 7.87296 1.22869C8.60165 1.56108 9.16841 2.02344 9.57324 2.61577C9.97807 3.2081 10.1869 3.89418 10.1997 4.67401H7.54696ZM14.1979 14H11.232L15.7512 0.909091H19.3179L23.8307 14H20.8648L17.5857 3.90057H17.4834L14.1979 14ZM14.0125 8.8544H21.0182V11.0149H14.0125V8.8544ZM23.3081 3.19105V0.909091H34.0596V3.19105H30.0518V14H27.316V3.19105H23.3081Z" fill="black"/>
</svg>
